<?xml version="1.0" encoding="UTF-8"?>
<svg id="Capa_1" data-name="Capa 1" xmlns="http://www.w3.org/2000/svg" viewBox="0 0 300 300">
  <defs>
    <style>
      .cls-1 {
        fill: #65b223;
      }
    </style>
  </defs>
  <g>
    <g>
      <path class="cls-1" d="M265.72,110.26l11.28,12.3c-1.32-2.39-2.86-4.65-4.68-6.71-1.93-2.19-4.15-4.05-6.6-5.59h0Z"/>
      <path class="cls-1" d="M246.56,110.84c3.7,0,7.37.66,10.73,1.91l-34.98,59.23-20.46-2.28-11.56-1.43c5.54-3.01,10.3-7.02,14.09-11.95,4.37-5.68,7.42-12,10.37-18.11,3.93-8.13,7.64-15.82,14.02-21.23,4.68-3.97,11-6.15,17.8-6.15M246.56,104.84c-7.85,0-15.67,2.48-21.68,7.57-12.49,10.59-15.57,27.65-25.26,40.26-8.97,11.65-22.93,16.14-37.12,16.14-2.46,0-4.93-.13-7.38-.39-5.55-.59-11.94-1.62-18.55-3.09l5.49,4.19,26.19,2.07,32.89,4.06,24.35,2.71,40.23-68.11c-5.65-3.59-12.42-5.43-19.16-5.43h0Z"/>
      <path class="cls-1" d="M275.21,133.8c1.04,3.36,1.88,7.13,2.52,11.38.11.74.21,1.49.31,2.25l-7.14-8.64,4.32-4.99M278.56,173.06c-.9,13.1-3.54,27.84-8.87,41.48l-11.56-35,20.43-6.48M224.09,212.07l36.39,20.2c-7.3,10.62-17.91,19.72-33.08,21.22-1.36.13-2.75.2-4.12.2-8.38,0-16.43-2.48-24.13-6.53l24.93-35.09M184.47,214.67v22.73c-6.55-5.19-12.8-11.18-18.74-17.31l18.74-5.42M277,122.56l-13.96,16.13,21.61,26.14-34.12,10.83,17.88,54.14-46.1-25.58-31.84,44.81v-42.34l-35.87,10.38c17.52,18.84,41.04,42.61,68.68,42.61,1.56,0,3.13-.08,4.71-.23,45.99-4.53,59.95-69.74,56.41-108.88-.2-2.17-.45-4.27-.75-6.28-1.14-7.51-3.03-15.14-6.67-21.73h0Z"/>
      <path class="cls-1" d="M96.01,149.11c4.26,3.16,8.73,7.11,13.38,11.99,4.32,4.53,8.46,9.48,12.48,14.56l14.71-10.32c-14.66-3.27-30.39-8.7-40.56-16.22h0Z"/>
      <path class="cls-1" d="M136.44,184.83l11.18,2.34.42,12.89c-1.96-2.49-3.88-4.98-5.74-7.43-.69-.97-.91-1.25-1.32-1.75-1.18-1.55-2.36-3.13-3.54-4.71-.33-.44-.67-.89-1.01-1.34M121.86,175.66c3.68,4.65,7.26,9.42,10.78,14.12,1.2,1.62,2.43,3.25,3.65,4.85.37.44.47.56,1.18,1.56,5.5,7.24,11.15,14.46,17.13,20.88l-1.14-34.81-31.6-6.6h0Z"/>
    </g>
    <path class="cls-1" d="M246.56,104.84v6c4.59,0,9.14,1.02,13.11,2.92-.55,20-5,39.91-12.38,55.12-9.38,19.34-22.54,29.97-39.09,31.61-1.36.13-2.75.2-4.13.2-18.04,0-34.72-11.56-50.27-26.37.24.03.47.05.7.08,2.69.28,5.38.42,8,.42,17.83,0,32.7-6.57,41.87-18.49,4.37-5.68,7.42-12,10.37-18.11,3.93-8.13,7.64-15.82,14.02-21.23,4.68-3.97,11-6.15,17.8-6.15v-6M246.56,104.84c-7.85,0-15.67,2.48-21.68,7.57-12.49,10.59-15.57,27.65-25.26,40.26-8.97,11.66-22.93,16.14-37.12,16.14-2.46,0-4.93-.14-7.38-.39-5.55-.59-11.94-1.62-18.55-3.09,17.38,18.62,40.47,41.35,67.5,41.35,1.56,0,3.13-.08,4.72-.23,41.32-4.07,56.77-57.08,56.94-96.19-5.65-3.59-12.42-5.43-19.17-5.43h0Z"/>
    <g>
      <path class="cls-1" d="M132.15,189.14c.88,1.18,1.7,2.41,2.66,3.55-.9-1.18-1.78-2.36-2.66-3.55h0Z"/>
      <path class="cls-1" d="M60.4,148.22c26.39,0,49.27,28.31,58.02,40.7-3.8,2.66-8.01,6.51-12.72,11.64-2.79,3.04-5.1,5.8-6.63,7.63-.42.51-.78.93-1.05,1.25-1.43,1.67-3.04,3.62-5.24,6.34l-1.28,1.58c-11.57,14.33-29.05,36-44.88,36-5.9,0-11.4-3.04-16.82-9.28-3.87-4.46-6.43-10.85-7.85-19.53-1.84-11.27-.84-24.49,2.88-38.22.6-2.21,1.22-4.24,1.88-6.21.02-.07.04-.13.06-.2,3.92-11.65,9.36-20.86,16.19-27.4,5.66-2.85,11.52-4.29,17.4-4.29M27.06,178.15h0,0M60.4,142.22c-6.75,0-13.75,1.59-20.9,5.34-8.81,8.15-14.63,19.21-18.44,30.59,0,.01-.01.03-.01.05-.73,2.18-1.39,4.36-1.98,6.54-3.55,13.08-5.21,27.31-3.02,40.77,1.32,8.1,3.85,16.29,9.24,22.5,7.03,8.1,14.23,11.35,21.35,11.35,19.33,0,38.01-23.97,50.82-39.81,1.84-2.27,3.56-4.37,5.13-6.21,1.23-1.43,4.03-4.9,7.54-8.72,5.03-5.47,11.5-11.65,16.92-13.61-4.08-6.53-31.88-48.79-66.64-48.79h0Z"/>
    </g>
  </g>
  <path class="cls-1" d="M58.63,78.8c10.87,0,19.72,8.84,19.72,19.72s-8.84,19.72-19.72,19.72-19.72-8.84-19.72-19.72,8.84-19.72,19.72-19.72M58.63,72.8c-14.2,0-25.72,11.51-25.72,25.72s11.51,25.72,25.72,25.72,25.72-11.51,25.72-25.72-11.51-25.72-25.72-25.72h0Z"/>
  <path class="cls-1" d="M244.05,46.32c10.87,0,19.72,8.84,19.72,19.72s-8.84,19.72-19.72,19.72-19.72-8.84-19.72-19.72,8.84-19.72,19.72-19.72M244.05,40.32c-14.2,0-25.72,11.51-25.72,25.72s11.51,25.72,25.72,25.72,25.72-11.51,25.72-25.72-11.51-25.72-25.72-25.72h0Z"/>
</svg>